<?xml version="1.0" standalone="no"?>
<!DOCTYPE svg PUBLIC "-//W3C//DTD SVG 20010904//EN"
 "http://www.w3.org/TR/2001/REC-SVG-20010904/DTD/svg10.dtd">
<svg version="1.0" xmlns="http://www.w3.org/2000/svg"
 width="700.000000pt" height="700.000000pt" viewBox="0 0 700.000000 700.000000"
 preserveAspectRatio="xMidYMid meet">
<metadata>
Created by potrace 1.14, written by Peter Selinger 2001-2017
</metadata>
<g transform="translate(0.000000,700.000000) scale(0.100000,-0.100000)"
fill="#000000" stroke="none">
<path d="M1126 6988 c-6 -4 -79 -102 -161 -218 -83 -117 -175 -246 -205 -288
-31 -43 -91 -126 -134 -187 l-78 -109 6 -81 c3 -44 8 -96 10 -115 3 -19 7 -74
11 -122 3 -47 7 -94 9 -105 2 -10 7 -54 11 -98 3 -44 8 -91 10 -105 2 -14 6
-65 10 -114 4 -50 8 -97 10 -105 1 -9 6 -54 9 -101 4 -47 9 -101 11 -120 2
-19 7 -64 10 -100 3 -36 7 -81 10 -100 2 -19 7 -71 10 -115 3 -44 8 -91 10
-105 2 -14 6 -61 10 -105 4 -44 8 -96 10 -115 6 -52 16 -160 20 -200 2 -19 6
-62 9 -95 3 -33 8 -91 12 -130 4 -38 8 -81 9 -95 1 -14 5 -59 9 -100 8 -84 14
-147 21 -217 2 -27 7 -75 10 -108 3 -33 7 -76 10 -95 2 -19 7 -71 11 -115 3
-44 8 -91 9 -105 1 -14 6 -61 10 -105 11 -129 15 -168 20 -210 2 -22 7 -69 10
-105 11 -135 16 -186 20 -220 2 -19 7 -64 10 -100 3 -36 8 -83 10 -105 3 -22
7 -71 10 -110 3 -38 8 -86 10 -105 2 -19 6 -66 10 -105 3 -38 8 -90 10 -115 3
-25 7 -70 10 -100 3 -30 7 -75 10 -100 2 -25 7 -74 10 -110 3 -36 7 -83 10
-105 4 -38 8 -78 20 -212 17 -180 40 -291 85 -408 27 -68 86 -184 133 -260 22
-35 124 -159 169 -205 184 -188 422 -324 678 -388 161 -40 177 -41 995 -39
792 2 801 3 878 24 120 34 257 101 324 158 67 57 150 151 220 248 l85 118 47
-68 c148 -210 349 -361 581 -436 112 -36 131 -39 416 -44 l261 -5 145 204 c80
111 158 222 174 244 16 23 81 115 144 204 63 89 114 165 114 169 -1 3 -5 42
-9 86 -3 44 -8 94 -10 110 -3 28 -9 83 -21 225 -2 30 -6 73 -9 95 -2 22 -7 66
-10 98 -3 31 -7 81 -10 110 -3 28 -7 79 -10 112 -3 33 -7 83 -10 110 -3 28 -7
77 -10 110 -7 75 -14 125 -20 134 -2 4 -24 6 -49 5 -25 -1 -48 1 -50 4 -2 4
-7 45 -11 92 -4 47 -8 92 -10 100 -2 8 -6 54 -10 102 -3 49 -8 100 -10 115 -2
16 -6 62 -10 103 -3 41 -8 86 -10 100 -2 14 -7 65 -10 113 -4 48 -8 96 -10
105 -1 9 -6 53 -9 97 -8 98 -16 180 -21 220 -2 17 -6 66 -10 110 -3 44 -8 94
-10 110 -2 17 -7 66 -10 110 -4 44 -8 91 -10 105 -2 14 -7 59 -10 100 -4 41
-8 89 -10 105 -1 17 -6 66 -9 110 -4 44 -9 96 -11 115 -2 19 -7 64 -10 100 -3
36 -8 79 -10 95 -2 17 -6 66 -10 110 -3 44 -8 96 -10 115 -7 60 -14 133 -20
200 -3 36 -8 83 -10 105 -2 22 -7 72 -10 110 -3 39 -8 88 -10 110 -8 78 -15
151 -20 220 -4 39 -8 81 -10 95 -2 14 -7 59 -10 100 -9 110 -16 184 -30 325
-2 22 -7 72 -10 110 -3 39 -8 84 -10 100 -2 17 -7 66 -10 110 -3 44 -8 96 -11
115 -3 19 -7 62 -9 95 -3 33 -7 78 -9 100 -3 22 -8 69 -11 105 -3 36 -8 83
-10 105 -2 22 -7 81 -10 130 -4 50 -8 92 -10 95 -2 3 -6 48 -10 100 -4 52 -9
97 -11 99 -7 8 -4624 7 -4638 -1z m2572 -302 c4 -4 8 -47 17 -163 3 -46 8 -92
10 -103 2 -11 6 -58 10 -104 3 -47 8 -100 10 -118 2 -18 7 -64 10 -103 3 -38
8 -86 10 -105 21 -194 21 -320 0 -404 -58 -228 -224 -396 -460 -467 -68 -20
-93 -21 -812 -24 -409 -2 -745 0 -747 3 -2 4 -7 43 -10 87 -4 44 -9 96 -11
115 -4 33 -7 63 -20 220 -3 36 -8 83 -10 105 -8 69 -14 138 -20 210 -3 39 -8
86 -10 105 -2 19 -7 67 -10 105 -3 39 -8 91 -10 118 -3 26 -7 68 -10 95 -2 26
-7 74 -10 107 -3 33 -7 80 -10 105 -2 25 -7 76 -10 113 -4 37 -8 77 -10 88 -4
18 4 19 246 19 137 0 249 -3 250 -7 0 -5 2 -15 3 -23 3 -15 16 -141 21 -210 2
-19 6 -61 9 -92 3 -32 8 -84 11 -115 3 -32 7 -78 10 -103 5 -55 16 -170 20
-227 2 -23 6 -61 9 -85 10 -87 18 -218 15 -221 -2 -2 1 -10 8 -18 9 -12 43
-14 160 -14 89 1 147 5 146 11 -1 5 -4 48 -8 94 -3 47 -8 101 -10 120 -4 33
-11 109 -20 210 -4 43 -11 121 -20 205 -7 76 -15 160 -20 225 -3 36 -7 81 -10
100 -2 19 -7 61 -10 93 l-6 57 250 0 249 0 6 -57 c4 -32 9 -83 11 -113 2 -30
7 -82 10 -115 11 -104 14 -138 20 -205 11 -130 16 -186 20 -210 2 -14 7 -63
10 -110 4 -47 8 -98 10 -115 2 -16 7 -64 10 -105 4 -41 9 -77 11 -79 2 -3 30
-3 61 -2 93 4 178 61 204 139 10 29 7 193 -5 282 -2 14 -7 63 -11 110 -4 47
-9 96 -10 110 -2 14 -6 63 -10 110 -4 47 -8 95 -10 106 -2 12 -6 61 -10 110
-4 49 -8 100 -10 114 -2 20 3 26 23 30 27 5 464 1 470 -4z m1798 1 c1 -1 5
-34 9 -72 4 -39 9 -88 11 -110 2 -22 6 -67 9 -100 3 -33 7 -82 10 -110 8 -74
13 -132 20 -210 3 -38 7 -86 10 -105 5 -46 13 -128 20 -215 4 -38 8 -87 11
-108 2 -20 6 -68 9 -105 3 -37 8 -83 10 -102 2 -19 6 -66 10 -105 6 -72 10
-109 20 -205 7 -72 14 -149 20 -235 3 -38 8 -84 10 -102 3 -18 7 -63 10 -100
3 -37 7 -86 10 -108 2 -22 7 -66 10 -97 3 -32 8 -83 11 -114 3 -30 7 -81 9
-112 2 -31 7 -77 10 -102 6 -54 17 -161 30 -315 3 -27 7 -72 10 -100 3 -27 7
-77 10 -110 3 -33 8 -80 10 -105 3 -25 7 -72 10 -105 3 -33 10 -103 15 -155 5
-52 12 -124 15 -160 3 -36 8 -76 10 -90 2 -14 6 -61 9 -105 4 -44 8 -96 11
-115 2 -19 7 -69 11 -110 3 -41 8 -86 9 -100 2 -14 6 -59 10 -100 8 -101 15
-178 29 -315 3 -27 8 -77 11 -110 3 -33 7 -80 10 -105 2 -25 7 -74 11 -109 7
-75 24 -104 77 -128 20 -9 37 -19 38 -22 0 -3 2 -14 4 -24 3 -16 6 -52 21
-212 2 -27 6 -77 9 -110 3 -33 8 -75 11 -93 l5 -34 -63 6 c-100 9 -149 24
-251 78 -83 44 -222 183 -265 265 -57 108 -69 157 -87 358 -13 141 -17 180
-20 198 -2 12 -7 60 -10 107 -4 47 -8 98 -10 113 -2 15 -6 60 -10 100 -3 40
-8 83 -10 97 -2 14 -6 64 -10 111 -3 47 -7 96 -10 110 -2 13 -6 56 -10 94 -3
39 -8 88 -10 110 -2 22 -7 72 -10 110 -3 39 -8 88 -10 110 -2 22 -9 92 -15
155 -6 63 -13 135 -15 160 -8 81 -14 144 -20 210 -3 36 -8 81 -10 100 -2 19
-7 67 -10 105 -3 39 -8 88 -10 110 -3 22 -7 69 -10 105 -3 36 -8 81 -10 100
-2 19 -6 67 -10 105 -3 39 -8 88 -10 110 -6 56 -17 172 -20 220 -2 22 -6 65
-9 95 -10 92 -17 163 -21 210 -2 25 -6 77 -10 115 -12 118 -13 127 -20 215 -4
47 -9 94 -11 104 -2 10 -6 58 -9 105 -4 47 -8 97 -10 111 -2 14 -7 61 -10 105
-4 44 -8 91 -10 105 -4 26 -10 96 -20 210 -7 78 -16 144 -20 148 -2 2 -355 4
-529 3 l-58 -1 6 -87 c4 -49 8 -101 10 -118 3 -30 13 -137 22 -230 2 -27 6
-72 9 -100 3 -27 7 -70 10 -95 8 -78 14 -142 21 -225 3 -44 8 -88 10 -98 1
-10 6 -55 9 -101 3 -45 7 -91 9 -102 2 -10 7 -59 11 -107 3 -48 8 -97 10 -107
2 -11 7 -59 10 -107 3 -49 8 -101 10 -118 5 -37 13 -116 20 -210 3 -38 8 -83
10 -100 2 -16 6 -66 10 -110 3 -44 8 -96 10 -115 10 -93 15 -141 20 -205 3
-38 8 -83 10 -100 3 -16 7 -64 10 -105 3 -41 7 -88 9 -105 3 -16 7 -68 11
-115 3 -47 8 -96 10 -110 3 -23 8 -70 21 -220 2 -30 7 -75 9 -100 3 -25 7 -72
10 -105 3 -33 7 -78 10 -100 2 -22 7 -74 11 -115 3 -41 8 -88 10 -105 1 -16 5
-66 9 -110 3 -44 8 -91 10 -105 2 -14 7 -59 10 -100 10 -132 25 -289 31 -345
3 -22 7 -87 9 -145 3 -116 -15 -192 -71 -287 -75 -131 -239 -237 -394 -258
-40 -5 -1007 -6 -1330 -1 -222 3 -273 11 -398 57 -287 105 -513 337 -606 621
-29 91 -33 119 -72 523 -2 28 -6 68 -8 90 -3 22 -7 74 -11 115 -3 41 -8 91
-10 110 -2 19 -7 64 -10 100 -3 36 -8 85 -10 110 -3 25 -7 74 -10 110 -4 36
-8 81 -10 100 -2 19 -6 64 -10 100 -10 116 -16 184 -20 220 -6 63 -18 185 -19
205 -1 20 6 20 594 22 327 1 633 4 680 6 133 6 215 55 270 162 20 39 24 62 24
129 0 81 -7 181 -20 311 -4 39 -8 78 -8 88 0 12 -9 17 -31 17 -16 1 -377 1
-802 1 -711 1 -773 2 -777 17 -3 10 -8 51 -11 92 -3 41 -7 89 -9 105 -2 17 -7
64 -11 105 -3 41 -8 94 -10 116 -3 28 -1 43 8 46 17 5 2086 3 2090 -3 3 -2 7
-40 11 -84 7 -82 9 -100 25 -270 6 -55 13 -129 16 -165 3 -36 8 -76 10 -90 18
-121 26 -393 13 -465 -44 -250 -248 -481 -493 -557 -123 -39 -146 -41 -594
-43 -229 -2 -420 -3 -424 -4 -7 -1 -1 -131 8 -181 2 -8 6 -53 10 -100 3 -47 8
-101 10 -120 9 -81 21 -217 30 -330 3 -36 7 -81 10 -100 3 -19 7 -64 10 -100
13 -163 24 -245 41 -294 48 -135 159 -239 299 -278 41 -12 176 -14 757 -14
l708 1 27 27 c30 30 33 66 19 208 -4 41 -9 95 -11 120 -2 25 -7 68 -10 95 -3
28 -7 77 -10 110 -8 99 -17 191 -30 325 -3 25 -7 74 -10 110 -3 36 -8 81 -10
100 -2 19 -7 71 -10 115 -3 44 -8 91 -10 105 -2 14 -7 61 -11 105 -3 44 -7 94
-9 110 -11 121 -16 175 -20 205 -2 19 -7 71 -11 115 -3 44 -8 91 -9 105 -3 26
-12 124 -20 218 -5 49 -11 112 -20 207 -2 22 -6 72 -10 110 -3 39 -8 86 -10
105 -3 19 -7 66 -10 105 -3 38 -7 81 -10 95 -2 14 -6 64 -10 111 -3 47 -7 96
-10 110 -2 13 -6 64 -10 113 -4 50 -8 97 -10 105 -1 9 -6 52 -9 96 -4 44 -9
96 -11 115 -2 19 -7 69 -11 110 -3 41 -8 86 -9 100 -1 14 -6 63 -9 110 -4 47
-9 96 -11 110 -2 14 -6 57 -10 95 -3 39 -8 88 -10 110 -2 22 -7 72 -10 110 -3
39 -8 86 -10 105 -2 19 -7 71 -10 114 -4 43 -8 86 -10 95 -1 9 -6 54 -10 101
-3 47 -8 99 -9 115 -6 60 -18 191 -20 215 -2 21 3 26 28 30 30 5 1547 2 1552
-3z"/>
</g>
</svg>
